<svg id="Layer_1" data-name="Layer 1" xmlns="http://www.w3.org/2000/svg" viewBox="0 0 45 45"><defs><style>.cls-1{fill:#2cb997;}.cls-2{fill:#1993c0;}</style></defs><path class="cls-1" d="M8.4,36.82a1,1,0,0,1-.24,0,1.09,1.09,0,0,1-.24-.07l-.21-.11a1,1,0,0,1-.19-.16,1.46,1.46,0,0,1-.16-.19,2.12,2.12,0,0,1-.11-.21,1.13,1.13,0,0,1-.08-.24,1.94,1.94,0,0,1,0-.24,1.26,1.26,0,0,1,.37-.89,1,1,0,0,1,.19-.15,1.43,1.43,0,0,1,.21-.12l.24-.07a1.34,1.34,0,0,1,.49,0l.23.07a2.39,2.39,0,0,1,.22.12l.18.15a1.24,1.24,0,0,1,.37.89,1.94,1.94,0,0,1,0,.24,2.17,2.17,0,0,1-.07.24l-.12.21a1.46,1.46,0,0,1-.16.19,1.37,1.37,0,0,1-.18.16l-.22.11a1,1,0,0,1-.23.07Z"/><path class="cls-1" d="M12.8,36.82a1,1,0,0,1-.24,0,1.09,1.09,0,0,1-.24-.07l-.21-.11a1,1,0,0,1-.19-.16,1.22,1.22,0,0,1-.37-.88,1.07,1.07,0,0,1,0-.25,1,1,0,0,1,.07-.23,1.51,1.51,0,0,1,.11-.22c.05-.06.1-.13.16-.19a1.29,1.29,0,0,1,1.76,0,1.26,1.26,0,0,1,.37.89,1,1,0,0,1,0,.24,1.09,1.09,0,0,1-.07.24,2.12,2.12,0,0,1-.11.21,1.45,1.45,0,0,1-.35.35l-.21.11a1.19,1.19,0,0,1-.23.07Z"/><path class="cls-1" d="M17.2,36.82l-.24,0-.24-.08-.21-.11a1,1,0,0,1-.19-.16,1.46,1.46,0,0,1-.16-.19,2.12,2.12,0,0,1-.11-.21,1.13,1.13,0,0,1-.08-.24,1.94,1.94,0,0,1,0-.24,2.11,2.11,0,0,1,0-.25,1,1,0,0,1,.08-.23,1.39,1.39,0,0,1,.11-.21,1.56,1.56,0,0,1,.16-.2,1,1,0,0,1,.19-.15.88.88,0,0,1,.21-.12l.24-.07a1.29,1.29,0,0,1,.48,0l.24.07a.88.88,0,0,1,.21.12,1,1,0,0,1,.19.15,1.56,1.56,0,0,1,.16.2,1.39,1.39,0,0,1,.11.21,1,1,0,0,1,.08.23,2.11,2.11,0,0,1,0,.25,1.22,1.22,0,0,1-.37.88,1,1,0,0,1-.19.16l-.21.11-.24.08Z"/><path class="cls-2" d="M16.87,21.58a1.25,1.25,0,0,1-.92-.4l-.63-.69A1.24,1.24,0,0,1,15,19.35l.63-2.56a1.26,1.26,0,0,1,1.18-.95h0a1.25,1.25,0,0,1,1.2.89l.78,2.6a1.27,1.27,0,0,1-.4,1.32l-.78.64A1.2,1.2,0,0,1,16.87,21.58Z"/><path class="cls-2" d="M16.94,12.87A4.56,4.56,0,1,1,21.5,8.32,4.55,4.55,0,0,1,16.94,12.87Zm0-6.61A2.06,2.06,0,1,0,19,8.32,2.06,2.06,0,0,0,16.94,6.26Z"/><path class="cls-2" d="M23.11,20.31A1.25,1.25,0,0,1,22,19.62a5.64,5.64,0,0,0-9.28-1.2,1.25,1.25,0,1,1-1.87-1.66A8.13,8.13,0,0,1,24.22,18.5a1.25,1.25,0,0,1-.55,1.68A1.27,1.27,0,0,1,23.11,20.31Z"/><path class="cls-2" d="M35.33,34.6a4.2,4.2,0,1,1,4.2-4.2A4.2,4.2,0,0,1,35.33,34.6Zm0-5.9A1.7,1.7,0,1,0,37,30.4,1.7,1.7,0,0,0,35.33,28.7Z"/><path class="cls-2" d="M41.47,44.28A1.25,1.25,0,0,1,40.22,43a4.89,4.89,0,1,0-9.78,0,1.25,1.25,0,0,1-2.5,0,7.39,7.39,0,1,1,14.78,0A1.25,1.25,0,0,1,41.47,44.28Z"/><path class="cls-1" d="M32.6,26H2.28A1.25,1.25,0,0,1,1,24.78V2.38A1.25,1.25,0,0,1,2.28,1.13h22a1.25,1.25,0,0,1,0,2.5H3.53v19.9H31.35V16.87a1.25,1.25,0,1,1,2.5,0v7.91A1.25,1.25,0,0,1,32.6,26Z"/><path class="cls-1" d="M8.4,21.92H6.78a1.25,1.25,0,0,1,0-2.5H8.4a1.25,1.25,0,0,1,0,2.5Z"/><path class="cls-1" d="M27.55,21.92H13a1.25,1.25,0,1,1,0-2.5H27.55a1.25,1.25,0,0,1,0,2.5Z"/><path class="cls-1" d="M10.59,23.14a2.81,2.81,0,1,1,2.8-2.81A2.81,2.81,0,0,1,10.59,23.14Zm0-3.62a.81.81,0,0,0,0,1.62.81.81,0,0,0,0-1.62Z"/><path class="cls-1" d="M22.88,43.36H3.72a1.25,1.25,0,0,1-1.25-1.25V29a1.25,1.25,0,0,1,1.25-1.25H22.88A1.25,1.25,0,0,1,24.13,29v3.68l2.6,1.68a1.23,1.23,0,0,1,.58,1,1.25,1.25,0,0,1-.52,1.05l-2.66,1.93v3.73A1.25,1.25,0,0,1,22.88,43.36ZM5,40.86H21.63V37.75a1.23,1.23,0,0,1,.52-1l1.7-1.24-1.64-1a1.25,1.25,0,0,1-.58-1.05V30.28H5Z"/><path class="cls-2" d="M30.09,15.6a1.16,1.16,0,0,1-.49-.1,1.26,1.26,0,0,1-.76-1.11L28.77,12H27.55a1.25,1.25,0,0,1-1.25-1.25V2.52a1.25,1.25,0,0,1,1.25-1.25H41.71A1.25,1.25,0,0,1,43,2.52v8.24A1.25,1.25,0,0,1,41.71,12h-7.1l-3.69,3.28A1.27,1.27,0,0,1,30.09,15.6ZM28.8,9.51H30a1.26,1.26,0,0,1,1.25,1.22l0,.91,2.05-1.81a1.26,1.26,0,0,1,.83-.32h6.32V3.77H28.8Z"/></svg>