<svg width="42" height="44" viewBox="0 0 42 44" fill="none" xmlns="http://www.w3.org/2000/svg">
<path d="M24.8 6.30005H28.9V18.1" stroke="#1993C0" stroke-width="2.5" stroke-miterlimit="10" stroke-linecap="round" stroke-linejoin="round"/>
<path d="M20.2 42.5H2V6.30005H6" stroke="#1993C0" stroke-width="2.5" stroke-miterlimit="10" stroke-linecap="round" stroke-linejoin="round"/>
<path d="M36 39.8999C35.6 38.9999 35.7 38.1999 36.3 37.3999C36.9 36.5999 37.7 36.3999 38.7 36.5999C39.4 36.6999 39.6 36.6999 39.8 35.9999C40 35.3999 40.2 34.7999 40.3 34.1999C40.5 33.4999 40.4 33.2999 39.7 33.0999C38.4 32.5999 37.7 31.1999 38.2 29.8999C38.4 29.3999 38.8 28.9999 39.2 28.6999C39.6 28.4999 39.7 28.1999 39.6 27.6999C39.2 26.9999 38.8 26.2999 38.4 25.5999C38.1 25.2999 37.7 25.2999 37.3 25.4999C36.8 25.7999 36.4 25.7999 35.8 25.6999C34.4 25.4999 33.7 24.0999 33.9 22.8999C34.1 21.9999 34 21.8999 33.2 21.5999C32.6 21.3999 32 21.1999 31.4 21.0999C30.8 20.9999 30.6 21.0999 30.4 21.6999C30.2 22.2999 29.8 22.7999 29.2 23.0999C28.2 23.6999 27 23.2999 26.3 22.4999C26.2 22.3999 26.1 22.2999 26 22.0999C25.8 21.6999 25.5 21.5999 25.1 21.5999C24.4 21.9999 23.6 22.3999 22.9 22.7999C22.6 23.0999 22.7 23.4999 22.8 23.8999C23.3 24.9999 23.1 25.9999 22.2 26.7999C21.6 27.2999 21 27.3999 20.3 27.2999C20.2 27.2999 20.1 27.1999 20 27.1999C19.6 27.0999 19.3 27.1999 19.2 27.5999C18.9 28.2999 18.7 29.0999 18.6 29.7999C18.5 30.1999 18.7 30.3999 19.1 30.5999C19.4 30.6999 19.8 30.8999 20.1 31.0999C21.3 32.1999 21.2 33.8999 19.9 34.8999L19.8 34.9999C19.4 35.1999 19.3 35.4999 19.4 35.9999C19.8 36.6999 20.2 37.3999 20.6 38.0999C21 38.3999 21.3 38.2999 21.7 38.0999C22.6 37.6999 23.4 37.7999 24.2 38.3999C24.9 38.8999 25.2 39.6999 25.1 40.5999C25.1 40.7999 25 40.8999 25 41.0999C24.9 41.3999 25.1 41.6999 25.4 41.8999C26.2 42.1999 27 42.4999 27.8 42.5999C28.2 42.6999 28.4 42.4999 28.5 42.0999C28.5 41.9999 28.6 41.8999 28.6 41.7999C29.1 40.2999 31.2 39.5999 32.6 41.0999C32.7 41.1999 32.9 41.3999 32.9 41.4999C33.1 41.8999 33.4 41.9999 33.9 41.8999C34.6 41.4999 35.3 41.0999 36 40.6999C36.3 40.6999 36.2 40.2999 36 39.8999Z" stroke="#2CB997" stroke-width="2.5" stroke-miterlimit="10" stroke-linecap="round" stroke-linejoin="round"/>
<path d="M16.9 5.5C17.1 5.1 17.3 4.7 17.3 4.3C17.3 3 16.3 2 15 2C13.7 2 12.7 3.1 12.7 4.3C12.7 4.7 12.8 5.2 13.1 5.5H7.60001V9.2H23.3V5.5H16.9Z" stroke="#2CB997" stroke-width="2.5" stroke-miterlimit="10" stroke-linecap="round" stroke-linejoin="round"/>
<path d="M7 18.5L8.4 20.5L13.2 15.8" stroke="#1993C0" stroke-width="2.5" stroke-miterlimit="10" stroke-linecap="round" stroke-linejoin="round"/>
<path d="M7 33L8.4 34.9L13.2 30.2" stroke="#1993C0" stroke-width="2.5" stroke-miterlimit="10" stroke-linecap="round" stroke-linejoin="round"/>
</svg>
