<svg id="Layer_1" data-name="Layer 1" xmlns="http://www.w3.org/2000/svg" viewBox="0 0 45 45"><defs><style>.cls-1{fill:#1993c0;}.cls-2{fill:#2cb997;}</style></defs><path class="cls-1" d="M25.49,36.21a1.22,1.22,0,0,1-.94-.43,11.34,11.34,0,0,0-16.81-.34,1.25,1.25,0,0,1-1.82-1.71A13.74,13.74,0,0,1,16,29.38a13.88,13.88,0,0,1,10.45,4.76,1.24,1.24,0,0,1-.13,1.76A1.2,1.2,0,0,1,25.49,36.21Z"/><path class="cls-1" d="M15.75,28.1A7.22,7.22,0,1,1,23,20.88,7.23,7.23,0,0,1,15.75,28.1Zm0-11.93a4.72,4.72,0,1,0,4.72,4.71A4.71,4.71,0,0,0,15.75,16.17Z"/><path class="cls-2" d="M41,39H30.86a1.25,1.25,0,0,1,0-2.5h8.85V17.57a1.25,1.25,0,0,1,2.5,0V37.73A1.25,1.25,0,0,1,41,39Z"/><path class="cls-2" d="M1.78,39A1.25,1.25,0,0,1,.53,37.73V1.65A1.25,1.25,0,0,1,1.78.4h30a1.25,1.25,0,1,1,0,2.5H3V37.73A1.25,1.25,0,0,1,1.78,39Z"/><path class="cls-2" d="M28.37,36.47a1.14,1.14,0,0,1-.51-.11,1.25,1.25,0,0,1-.63-1.65l4.66-10.4a1.26,1.26,0,0,1,1.66-.63,1.25,1.25,0,0,1,.63,1.65l-4.67,10.4A1.24,1.24,0,0,1,28.37,36.47Z"/><path class="cls-2" d="M20.58,9H6.83a1.25,1.25,0,0,1,0-2.5H20.58a1.25,1.25,0,0,1,0,2.5Z"/><path class="cls-2" d="M27,9H24a1.25,1.25,0,0,1,0-2.5H27A1.25,1.25,0,0,1,27,9Z"/><path class="cls-2" d="M27,14.2H24a1.25,1.25,0,0,1,0-2.5H27a1.25,1.25,0,0,1,0,2.5Z"/><path class="cls-1" d="M5.15,43.43A4.62,4.62,0,1,1,9.78,38.8,4.63,4.63,0,0,1,5.15,43.43Zm0-6.75a2.11,2.11,0,1,0,.52.06A2.24,2.24,0,0,0,5.15,36.68Z"/><path class="cls-1" d="M27.33,43.43a4.63,4.63,0,1,1,0-9.25A4.64,4.64,0,0,1,32,38.8,4.63,4.63,0,0,1,27.33,43.43Zm0-6.75a2.11,2.11,0,1,0,.51.06A2.16,2.16,0,0,0,27.33,36.68Z"/><path class="cls-1" d="M15.91,44.81A1.25,1.25,0,0,1,15,44.4l-2.33-2.52a1.24,1.24,0,0,1-.3-1.15l2.33-9.43a1.25,1.25,0,0,1,1.18-.95,1.21,1.21,0,0,1,1.23.89L20,40.82a1.25,1.25,0,0,1-.4,1.32l-2.86,2.38A1.27,1.27,0,0,1,15.91,44.81Zm-1-4.14L16,41.84l1.32-1.1L16,36.34Z"/><path class="cls-1" d="M33.37,15a1.21,1.21,0,0,1-.73-.24,1.24,1.24,0,0,1-.51-1.22l.62-3.69-2.69-2.6a1.25,1.25,0,0,1,.68-2.13l3.7-.55,1.64-3.36A1.27,1.27,0,0,1,37.2.46h0a1.24,1.24,0,0,1,1.12.7L40,4.5l3.7.52a1.25,1.25,0,0,1,.71,2.13L41.73,9.77l.65,3.68a1.25,1.25,0,0,1-1.81,1.33l-3.32-1.73L34,14.81A1.19,1.19,0,0,1,33.37,15Zm.25-7.78L35,8.47a1.27,1.27,0,0,1,.36,1.11L35,11.41l1.64-.87a1.27,1.27,0,0,1,1.17,0l1.65.86-.33-1.83a1.24,1.24,0,0,1,.36-1.11l1.33-1.31L39,6.88a1.22,1.22,0,0,1-.94-.67l-.83-1.67L36.4,6.21a1.25,1.25,0,0,1-.94.69Zm1.66-1.52h0Z"/></svg>