<svg width="44" height="44" viewBox="0 0 44 44" fill="none" xmlns="http://www.w3.org/2000/svg">
<path d="M6.7 7.3V2H42.2V29.7H17.1" stroke="#1993C0" stroke-width="2.5" stroke-miterlimit="10" stroke-linecap="round" stroke-linejoin="round"/>
<path d="M2 42.3C2 37.4 5.9 33.5 10.8 33.5C15.7 33.5 19.6 37.4 19.6 42.3" stroke="#1993C0" stroke-width="2.5" stroke-miterlimit="10" stroke-linecap="round" stroke-linejoin="round"/>
<path d="M10.2 30.1C12.7405 30.1 14.8 28.0405 14.8 25.5C14.8 22.9595 12.7405 20.9 10.2 20.9C7.6595 20.9 5.60001 22.9595 5.60001 25.5C5.60001 28.0405 7.6595 30.1 10.2 30.1Z" stroke="#1993C0" stroke-width="2.5" stroke-miterlimit="10" stroke-linecap="round" stroke-linejoin="round"/>
<path d="M20.7 23.3C20.7 20.3 23.2 17.8 26.2 17.8C29.2 17.8 31.7 20.3 31.7 23.3" stroke="#19C099" stroke-width="2.5" stroke-miterlimit="10" stroke-linecap="round" stroke-linejoin="round"/>
<path d="M26.2 14.3C27.8016 14.3 29.1 13.0016 29.1 11.4C29.1 9.79837 27.8016 8.5 26.2 8.5C24.5984 8.5 23.3 9.79837 23.3 11.4C23.3 13.0016 24.5984 14.3 26.2 14.3Z" stroke="#19C099" stroke-width="2.5" stroke-miterlimit="10" stroke-linecap="round" stroke-linejoin="round"/>
<path d="M16.2 16.6H7.6L2 20.9V16.6V8.19995H16.2V16.6Z" stroke="#1993C0" stroke-width="2.5" stroke-miterlimit="10" stroke-linecap="round" stroke-linejoin="round"/>
</svg>
