<svg width="127" height="32" viewBox="0 0 127 32" fill="none" xmlns="http://www.w3.org/2000/svg">
<path d="M42.1452 27.0842C40.8277 27.0842 40.1916 26.4032 40.1916 25.0866V7.29005C40.1916 5.97347 40.8731 5.29248 42.1906 5.29248H49.5506C51.913 5.29248 53.7303 5.83727 55.0024 6.97226C56.2745 8.10724 56.9105 9.69621 56.9105 11.7392C56.9105 13.3282 56.5016 14.6901 55.6384 15.7343C54.8207 16.7785 53.594 17.5049 52.0493 17.8681C53.0943 18.1859 53.9575 18.9577 54.5935 20.2289L56.8651 24.451C57.2286 25.0866 57.274 25.7222 57.0468 26.267C56.8197 26.8118 56.3199 27.0842 55.4567 27.0842C54.9115 27.0842 54.4572 26.948 54.0938 26.721C53.7303 26.494 53.4577 26.1308 53.1851 25.6314L50.2321 19.9565C49.8686 19.2755 49.4143 18.8215 48.9145 18.5491C48.4148 18.3221 47.7787 18.1859 47.0064 18.1859H44.0988V25.0412C44.0988 26.4032 43.4627 27.0842 42.1452 27.0842ZM44.0988 15.3257H48.8691C51.7313 15.3257 53.1397 14.1453 53.1397 11.83C53.1397 9.51462 51.7313 8.37963 48.8691 8.37963H44.0988V15.3257Z" fill="white"/>
<path d="M67.1325 27.1296C65.4516 27.1296 63.9977 26.8118 62.7711 26.1762C61.5444 25.5406 60.5903 24.6326 59.9543 23.4976C59.2728 22.3173 58.9548 20.9553 58.9548 19.3663C58.9548 17.8227 59.2728 16.4608 59.9089 15.3258C60.5449 14.1454 61.4536 13.2374 62.5893 12.6018C63.7251 11.9208 64.9972 11.603 66.4511 11.603C68.5864 11.603 70.2219 12.284 71.494 13.6006C72.7206 14.9626 73.3567 16.7785 73.3567 19.0939C73.3567 19.8657 72.8569 20.2289 71.9029 20.2289H62.6802C62.9528 22.9075 64.4975 24.224 67.2688 24.224C67.814 24.224 68.4046 24.1786 69.0407 24.0424C69.7221 23.9062 70.3128 23.6792 70.9034 23.3615C71.4486 23.0437 71.9029 22.9529 72.2663 23.0891C72.6298 23.1799 72.9024 23.4068 73.0387 23.7246C73.175 24.0424 73.2204 24.4056 73.0841 24.8142C72.9932 25.2228 72.6752 25.5406 72.2209 25.8584C71.494 26.3124 70.6762 26.6302 69.7676 26.8572C68.8135 27.0388 67.9503 27.1296 67.1325 27.1296ZM66.5874 14.1908C65.4516 14.1908 64.5429 14.554 63.8614 15.235C63.18 15.916 62.7711 16.8693 62.5893 18.0497H70.0856C69.9947 16.8239 69.6767 15.8706 69.0407 15.1896C68.5409 14.5086 67.6777 14.1908 66.5874 14.1908Z" fill="white"/>
<path d="M82.6249 27.1296C81.0347 27.1296 79.6718 26.8118 78.536 26.1762C77.3548 25.5406 76.4916 24.6326 75.8555 23.4522C75.2195 22.2719 74.9015 20.9099 74.9015 19.3209C74.9015 17.7319 75.2195 16.37 75.8555 15.235C76.4916 14.1 77.4002 13.192 78.536 12.5564C79.7172 11.9208 81.0802 11.603 82.6249 11.603C83.3063 11.603 84.0332 11.6938 84.8056 11.8754C85.5779 12.057 86.3503 12.3748 87.0317 12.7834C87.4406 13.0104 87.6678 13.3282 87.7587 13.7368C87.8495 14.1454 87.7587 14.4632 87.6224 14.8264C87.4406 15.1442 87.2135 15.3712 86.85 15.5074C86.532 15.6436 86.1231 15.5982 85.7142 15.3712C84.7602 14.8264 83.8515 14.5994 82.9883 14.5994C81.6708 14.5994 80.6259 15.008 79.899 15.8252C79.172 16.6424 78.8086 17.8227 78.8086 19.3663C78.8086 20.8645 79.172 22.0449 79.899 22.9075C80.6259 23.77 81.6254 24.224 82.9883 24.224C83.8515 24.224 84.7602 23.9516 85.7142 23.4522C86.1231 23.2253 86.532 23.1799 86.85 23.3161C87.168 23.4522 87.3952 23.6792 87.5315 24.0424C87.6678 24.3602 87.7132 24.7234 87.6224 25.132C87.5315 25.4952 87.3043 25.813 86.9409 26.0854C86.2594 26.494 85.5779 26.7664 84.8056 26.9934C84.0332 27.0388 83.3063 27.1296 82.6249 27.1296Z" fill="white"/>
<path d="M94.3917 27.1296C93.3013 27.1296 92.3472 26.9026 91.484 26.494C90.6208 26.0854 89.9848 25.4952 89.485 24.8143C88.9853 24.0879 88.7581 23.3161 88.7581 22.4081C88.7581 21.3185 89.0307 20.4559 89.6213 19.8203C90.2119 19.1847 91.1206 18.7307 92.3927 18.4129C93.6648 18.1406 95.3912 18.0044 97.5719 18.0044H98.6623V17.3688C98.6623 16.37 98.4351 15.5982 97.9808 15.1896C97.5265 14.7356 96.7996 14.5086 95.7092 14.5086C95.1186 14.5086 94.4825 14.5994 93.8011 14.7356C93.1196 14.8718 92.3927 15.1442 91.6658 15.462C91.166 15.689 90.7571 15.689 90.4391 15.5528C90.1211 15.3712 89.8939 15.0988 89.8031 14.7356C89.7122 14.3724 89.7122 13.9638 89.8485 13.6006C89.9848 13.192 90.3028 12.9196 90.8025 12.738C91.7566 12.3294 92.6198 12.057 93.5285 11.9208C94.3917 11.7392 95.164 11.6938 95.8909 11.6938C98.0716 11.6938 99.7072 12.1932 100.752 13.192C101.797 14.1908 102.342 15.7798 102.342 17.8682V25.1774C102.342 26.494 101.752 27.1296 100.57 27.1296C99.3892 27.1296 98.7531 26.494 98.7531 25.1774V24.4965C98.3897 25.3136 97.8445 25.9946 97.1176 26.4486C96.2998 26.9026 95.3912 27.1296 94.3917 27.1296ZM95.164 24.4965C96.1635 24.4965 96.9813 24.1333 97.6628 23.4523C98.3442 22.7713 98.6623 21.8633 98.6623 20.8191V20.1381H97.6173C95.7092 20.1381 94.3917 20.2743 93.6193 20.5921C92.8924 20.9099 92.4835 21.4093 92.4835 22.1811C92.4835 22.8621 92.7107 23.4069 93.165 23.8155C93.6648 24.3149 94.3462 24.4965 95.164 24.4965Z" fill="white"/>
<path d="M110.656 27.1295C107.249 27.1295 105.568 25.2227 105.568 21.4092V6.9722C105.568 5.70102 106.204 5.06543 107.476 5.06543C108.748 5.06543 109.384 5.70102 109.384 6.9722V21.2276C109.384 23.0436 110.156 23.9969 111.656 23.9969C111.837 23.9969 111.974 23.9969 112.11 23.9969C112.246 23.9969 112.383 23.9515 112.519 23.9515C112.791 23.9061 113.019 23.9969 113.109 24.1785C113.2 24.3601 113.246 24.7687 113.246 25.3589C113.246 25.8583 113.155 26.2669 112.928 26.5393C112.746 26.8117 112.383 26.9933 111.928 27.0387C111.565 27.0841 111.11 27.1295 110.656 27.1295Z" fill="white"/>
<path d="M121.424 27.1296C119.834 27.1296 118.471 26.8118 117.335 26.1762C116.154 25.5406 115.29 24.6326 114.654 23.4522C114.018 22.2719 113.7 20.9099 113.7 19.3209C113.7 17.7319 114.018 16.37 114.654 15.235C115.29 14.1 116.199 13.192 117.335 12.5564C118.516 11.9208 119.879 11.603 121.424 11.603C122.105 11.603 122.832 11.6938 123.604 11.8754C124.377 12.057 125.149 12.3748 125.831 12.7834C126.239 13.0104 126.467 13.3282 126.558 13.7368C126.648 14.1454 126.558 14.4632 126.421 14.8264C126.239 15.1442 126.012 15.3712 125.649 15.5074C125.331 15.6436 124.922 15.5982 124.513 15.3712C123.559 14.8264 122.65 14.5994 121.787 14.5994C120.47 14.5994 119.425 15.008 118.698 15.8252C117.971 16.6424 117.607 17.8227 117.607 19.3663C117.607 20.8645 117.971 22.0449 118.698 22.9075C119.425 23.77 120.424 24.224 121.787 24.224C122.65 24.224 123.559 23.9516 124.513 23.4522C124.922 23.2253 125.331 23.1799 125.649 23.3161C125.967 23.4522 126.194 23.6792 126.33 24.0424C126.467 24.3602 126.512 24.7234 126.421 25.132C126.33 25.4952 126.103 25.813 125.74 26.0854C125.058 26.494 124.377 26.7664 123.604 26.9934C122.832 27.0388 122.105 27.1296 121.424 27.1296Z" fill="white"/>
<path d="M23.1547 14.4631H10.1612C8.97999 14.4631 8.07135 13.5097 8.07135 12.3747C8.07135 11.2398 9.02542 10.2864 10.1612 10.2864H23.1547C24.3359 10.2864 25.2446 11.2398 25.2446 12.3747C25.2446 13.5097 24.3359 14.4631 23.1547 14.4631Z" fill="#1993C0"/>
<path d="M23.1547 21.9541H10.1612C8.97993 21.9541 8.07129 21.0007 8.07129 19.8657C8.07129 18.6853 9.02536 17.7773 10.1612 17.7773H23.1547C24.3359 17.7773 25.2445 18.7307 25.2445 19.8657C25.29 21.0007 24.3359 21.9541 23.1547 21.9541Z" fill="#1993C0"/>
<path d="M30.3328 22.4988C30.2419 22.4988 30.1056 22.4988 30.0148 22.4534C29.4242 22.2718 29.0607 21.6362 29.2424 21.046C30.3782 17.0963 29.9239 13.0103 27.8795 9.55998C25.8805 6.10963 22.6094 3.65806 18.6114 2.70468C17.9753 2.56848 17.6119 1.93289 17.7482 1.2973C17.8845 0.661709 18.5205 0.298515 19.1566 0.434713C23.7452 1.5697 27.5615 4.38445 29.8785 8.37959C32.1955 12.3747 32.7407 17.0963 31.4232 21.6816C31.2869 22.181 30.8325 22.4988 30.3328 22.4988Z" fill="#1993C0"/>
<path d="M14.7497 31.9417C14.6588 31.9417 14.6134 31.9417 14.5225 31.8963C9.88846 30.9429 5.98132 28.2644 3.48257 24.3146C1.02926 20.4103 0.302347 15.7342 1.43814 11.1488C1.57444 10.5133 2.21048 10.1501 2.84653 10.3317C3.48257 10.4679 3.84603 11.1034 3.6643 11.739C2.6648 15.6888 3.30085 19.7293 5.39071 23.1343C7.52601 26.5392 10.9334 28.8546 14.9314 29.6718C15.5674 29.808 15.9763 30.3982 15.84 31.0337C15.7492 31.5785 15.2494 31.9417 14.7497 31.9417Z" fill="#1993C0"/>
</svg>
