<svg width="124" height="31" viewBox="0 0 124 31" fill="none" xmlns="http://www.w3.org/2000/svg">
<path d="M40.4286 26.4933C39.1367 26.4933 38.513 25.8256 38.513 24.5347V7.08443C38.513 5.79347 39.1812 5.12573 40.4731 5.12573H47.6898C50.0063 5.12573 51.7882 5.65992 53.0356 6.77282C54.2829 7.88572 54.9066 9.44377 54.9066 11.447C54.9066 13.005 54.5056 14.3405 53.6592 15.3644C52.8574 16.3882 51.6546 17.1005 50.14 17.4566C51.1646 17.7682 52.011 18.525 52.6346 19.7715L54.862 23.9114C55.2184 24.5347 55.2629 25.1579 55.0402 25.6921C54.8175 26.2263 54.3274 26.4933 53.481 26.4933C52.9465 26.4933 52.501 26.3598 52.1446 26.1372C51.7882 25.9146 51.5209 25.5585 51.2537 25.0688L48.358 19.5044C48.0017 18.8366 47.5562 18.3915 47.0662 18.1244C46.5761 17.9018 45.9525 17.7682 45.1952 17.7682H42.3441V24.4901C42.3441 25.8256 41.7204 26.4933 40.4286 26.4933ZM42.3441 14.9637H47.0216C49.8281 14.9637 51.2091 13.8063 51.2091 11.536C51.2091 9.26571 49.8281 8.15281 47.0216 8.15281H42.3441V14.9637Z" fill="#333333"/>
<path d="M64.9295 26.5379C63.2812 26.5379 61.8557 26.2263 60.6529 25.6031C59.4501 24.9798 58.5146 24.0895 57.8909 22.9766C57.2227 21.8192 56.9109 20.4837 56.9109 18.9257C56.9109 17.4121 57.2227 16.0767 57.8464 14.9638C58.4701 13.8064 59.361 12.916 60.4747 12.2928C61.5884 11.6251 62.8357 11.3135 64.2613 11.3135C66.355 11.3135 67.9587 11.9812 69.2061 13.2722C70.4088 14.6077 71.0325 16.3883 71.0325 18.6586C71.0325 19.4154 70.5425 19.7715 69.607 19.7715H60.5638C60.8311 22.3979 62.3457 23.6889 65.0631 23.6889C65.5977 23.6889 66.1768 23.6444 66.8005 23.5108C67.4687 23.3773 68.0478 23.1547 68.6269 22.8431C69.1615 22.5315 69.607 22.4424 69.9634 22.576C70.3198 22.665 70.587 22.8876 70.7207 23.1992C70.8543 23.5108 70.8989 23.867 70.7652 24.2676C70.6761 24.6682 70.3643 24.9798 69.9188 25.2915C69.2061 25.7366 68.4042 26.0482 67.5133 26.2708C66.5777 26.4489 65.7313 26.5379 64.9295 26.5379ZM64.3949 13.8509C63.2812 13.8509 62.3903 14.207 61.722 14.8747C61.0538 15.5425 60.6529 16.4773 60.4747 17.6347H67.8251C67.736 16.4328 67.4242 15.498 66.8005 14.8302C66.3105 14.1625 65.4641 13.8509 64.3949 13.8509Z" fill="#333333"/>
<path d="M80.1206 26.5379C78.5614 26.5379 77.225 26.2263 76.1113 25.6031C74.9531 24.9798 74.1067 24.0895 73.483 22.9321C72.8593 21.7747 72.5475 20.4392 72.5475 18.8812C72.5475 17.3231 72.8593 15.9876 73.483 14.8747C74.1067 13.7618 74.9976 12.8715 76.1113 12.2483C77.2695 11.6251 78.606 11.3135 80.1206 11.3135C80.7888 11.3135 81.5016 11.4025 82.2589 11.5806C83.0162 11.7586 83.7735 12.0702 84.4417 12.4709C84.8427 12.6935 85.0654 13.0051 85.1545 13.4057C85.2436 13.8064 85.1545 14.118 85.0208 14.4741C84.8426 14.7857 84.6199 15.0083 84.2635 15.1418C83.9517 15.2754 83.5508 15.2309 83.1498 15.0083C82.2143 14.4741 81.3234 14.2515 80.477 14.2515C79.1851 14.2515 78.1605 14.6522 77.4477 15.4535C76.735 16.2547 76.3786 17.4121 76.3786 18.9257C76.3786 20.3947 76.735 21.5521 77.4477 22.3979C78.1605 23.2437 79.1405 23.6889 80.477 23.6889C81.3234 23.6889 82.2143 23.4218 83.1498 22.9321C83.5508 22.7095 83.9517 22.665 84.2635 22.7986C84.5754 22.9321 84.7981 23.1547 84.9317 23.5108C85.0654 23.8224 85.1099 24.1786 85.0208 24.5792C84.9317 24.9353 84.709 25.2469 84.3526 25.514C83.6844 25.9147 83.0162 26.1818 82.2589 26.4044C81.5016 26.4489 80.7888 26.5379 80.1206 26.5379Z" fill="#333333"/>
<path d="M91.6583 26.538C90.5892 26.538 89.6537 26.3154 88.8073 25.9148C87.9609 25.5141 87.3372 24.9354 86.8472 24.2677C86.3571 23.5554 86.1344 22.7986 86.1344 21.9083C86.1344 20.84 86.4017 19.9942 86.9808 19.3709C87.5599 18.7477 88.4509 18.3025 89.6982 17.9909C90.9456 17.7238 92.6384 17.5903 94.7767 17.5903H95.8458V16.9671C95.8458 15.9877 95.6231 15.231 95.1776 14.8303C94.7321 14.3852 94.0194 14.1626 92.9502 14.1626C92.3711 14.1626 91.7474 14.2516 91.0792 14.3852C90.411 14.5187 89.6982 14.7858 88.9855 15.0974C88.4954 15.32 88.0945 15.32 87.7827 15.1864C87.4708 15.0084 87.2481 14.7413 87.159 14.3852C87.0699 14.029 87.0699 13.6284 87.2035 13.2723C87.3372 12.8716 87.649 12.6045 88.139 12.4265C89.0745 12.0258 89.921 11.7587 90.8119 11.6252C91.6583 11.4471 92.4156 11.4026 93.1284 11.4026C95.2667 11.4026 96.8704 11.8923 97.895 12.8716C98.9196 13.851 99.4542 15.409 99.4542 17.4567V24.6238C99.4542 25.9148 98.8751 26.538 97.7168 26.538C96.5586 26.538 95.9349 25.9148 95.9349 24.6238V23.9561C95.5785 24.7573 95.044 25.4251 94.3312 25.8702C93.5293 26.3154 92.6384 26.538 91.6583 26.538ZM92.4156 23.9561C93.3957 23.9561 94.1975 23.5999 94.8658 22.9322C95.534 22.2645 95.8458 21.3741 95.8458 20.3503V19.6825H94.8212C92.9502 19.6825 91.6583 19.8161 90.901 20.1277C90.1882 20.4393 89.7873 20.929 89.7873 21.6858C89.7873 22.3535 90.0101 22.8877 90.4555 23.2883C90.9456 23.778 91.6138 23.9561 92.4156 23.9561Z" fill="#333333"/>
<path d="M107.607 26.5378C104.265 26.5378 102.617 24.6681 102.617 20.9288V6.77274C102.617 5.5263 103.241 4.90308 104.488 4.90308C105.736 4.90308 106.359 5.5263 106.359 6.77274V20.7507C106.359 22.5314 107.117 23.4662 108.587 23.4662C108.765 23.4662 108.898 23.4662 109.032 23.4662C109.166 23.4662 109.299 23.4217 109.433 23.4217C109.7 23.3772 109.923 23.4662 110.012 23.6443C110.101 23.8223 110.146 24.223 110.146 24.8017C110.146 25.2913 110.057 25.692 109.834 25.9591C109.656 26.2262 109.299 26.4042 108.854 26.4488C108.498 26.4933 108.052 26.5378 107.607 26.5378Z" fill="#333333"/>
<path d="M118.164 26.5379C116.605 26.5379 115.269 26.2263 114.155 25.6031C112.997 24.9798 112.15 24.0895 111.527 22.9321C110.903 21.7747 110.591 20.4392 110.591 18.8812C110.591 17.3231 110.903 15.9876 111.527 14.8747C112.15 13.7618 113.041 12.8715 114.155 12.2483C115.313 11.6251 116.65 11.3135 118.164 11.3135C118.833 11.3135 119.545 11.4025 120.303 11.5806C121.06 11.7586 121.817 12.0702 122.486 12.4709C122.886 12.6935 123.109 13.0051 123.198 13.4057C123.287 13.8064 123.198 14.118 123.065 14.4741C122.886 14.7857 122.664 15.0083 122.307 15.1418C121.996 15.2754 121.595 15.2309 121.194 15.0083C120.258 14.4741 119.367 14.2515 118.521 14.2515C117.229 14.2515 116.204 14.6522 115.492 15.4535C114.779 16.2547 114.422 17.4121 114.422 18.9257C114.422 20.3947 114.779 21.5521 115.492 22.3979C116.204 23.2437 117.184 23.6889 118.521 23.6889C119.367 23.6889 120.258 23.4218 121.194 22.9321C121.595 22.7095 121.996 22.665 122.307 22.7986C122.619 22.9321 122.842 23.1547 122.976 23.5108C123.109 23.8224 123.154 24.1786 123.065 24.5792C122.976 24.9353 122.753 25.2469 122.396 25.514C121.728 25.9147 121.06 26.1818 120.303 26.4044C119.545 26.4489 118.833 26.5379 118.164 26.5379Z" fill="#333333"/>
<path d="M21.8075 13.7834H9.0669C7.90865 13.7834 7.0177 12.8486 7.0177 11.7357C7.0177 10.6228 7.9532 9.68799 9.0669 9.68799H21.8075C22.9658 9.68799 23.8567 10.6228 23.8567 11.7357C23.8567 12.8486 22.9658 13.7834 21.8075 13.7834Z" fill="#1993C0"/>
<path d="M21.8071 21.1284H9.06641C7.90817 21.1284 7.01721 20.1936 7.01721 19.0807C7.01721 17.9233 7.95271 17.033 9.06641 17.033H21.8071C22.9653 17.033 23.8563 17.9678 23.8563 19.0807C23.9008 20.1936 22.9653 21.1284 21.8071 21.1284Z" fill="#1993C0"/>
<path d="M21.8075 13.7834H9.0669C7.90865 13.7834 7.0177 12.8486 7.0177 11.7357C7.0177 10.6228 7.9532 9.68799 9.0669 9.68799H21.8075C22.9658 9.68799 23.8567 10.6228 23.8567 11.7357C23.8567 12.8486 22.9658 13.7834 21.8075 13.7834Z" fill="#1993C0"/>
<path d="M21.8071 21.1284H9.06641C7.90817 21.1284 7.01721 20.1936 7.01721 19.0807C7.01721 17.9233 7.95271 17.033 9.06641 17.033H21.8071C22.9653 17.033 23.8563 17.9678 23.8563 19.0807C23.9008 20.1936 22.9653 21.1284 21.8071 21.1284Z" fill="#1993C0"/>
<path d="M28.8455 21.6626C28.7564 21.6626 28.6228 21.6626 28.5337 21.6181C27.9545 21.44 27.5982 20.8168 27.7764 20.2381C28.89 16.3652 28.4446 12.3588 26.4399 8.9756C24.4798 5.59239 21.2724 3.18854 17.3522 2.2537C16.7285 2.12015 16.3721 1.49693 16.5058 0.87371C16.6394 0.250488 17.2631 -0.105639 17.8868 0.0279089C22.3861 1.14081 26.1281 3.90079 28.4 7.81819C30.672 11.7356 31.2065 16.3652 29.9146 20.8613C29.781 21.351 29.3355 21.6626 28.8455 21.6626Z" fill="#1993C0"/>
<path d="M13.5656 30.9219C13.4765 30.9219 13.4319 30.9219 13.3429 30.8774C8.79898 29.9426 4.96788 27.3161 2.51775 23.4432C0.112172 19.6149 -0.600591 15.0297 0.513102 10.5336C0.646745 9.91042 1.27041 9.5543 1.89408 9.73236C2.51775 9.86591 2.87413 10.4891 2.69594 11.1124C1.71589 14.9852 2.33956 18.9471 4.38876 22.2858C6.4825 25.6245 9.82358 27.8948 13.7438 28.6961C14.3674 28.8297 14.7684 29.4084 14.6347 30.0316C14.5456 30.5658 14.0556 30.9219 13.5656 30.9219Z" fill="#1993C0"/>
</svg>
